<svg width="1000" height="800" xmlns="http://www.w3.org/2000/svg" xmlns:svg="http://www.w3.org/2000/svg">
 <!-- 背景 -->
 <!-- 标题 -->
 <!-- 数据流图 -->
 <!-- 两个主图窗展示 -->
 <!-- 图表图例 -->
 <!-- 版本信息 -->
 <!-- 箭头定义 -->
 <defs>
  <marker markerUnits="strokeWidth" orient="auto" refY="3" refX="9" markerHeight="10" markerWidth="10" id="arrow">
   <path id="svg_1" fill="#555" d="m0,0l0,6l9,-3l-9,-3z"/>
  </marker>
 </defs>
 <g>
  <title>Layer 1</title>
  <rect y="1.88889" x="-1" id="svg_2" fill="#f8f9fa" height="800" width="1000"/>
  <text id="svg_3" fill="#333" text-anchor="middle" font-weight="bold" font-size="24" font-family="Arial" y="35" x="500">plotStateData函数可视化逻辑</text>
  <text id="svg_4" fill="#555" text-anchor="middle" font-size="16" font-family="Arial" y="65" x="500">系统状态数据时间历程展示</text>
  <g stroke="null" id="svg_5">
   <!-- 输入部分 -->
   <rect stroke="#0066cc" id="svg_6" stroke-width="2" fill="#e6f2ff" rx="5" height="118.32433" width="180" y="300.33785" x="32.44444"/>
   <text transform="matrix(1,0,0,1.0756757259368896,0,-9.610816616625016) " stroke="null" id="svg_7" fill="#0066cc" text-anchor="middle" font-weight="bold" font-size="16" font-family="Arial" y="309.34294" x="122.94444">输入参数</text>
   <text transform="matrix(1,0,0,1.0756757259368896,0,-9.610816616625016) " stroke="null" id="svg_8" fill="#333" font-size="14" font-family="Arial" y="334.34294" x="47.94444">- logsout (状态日志)</text>
   <text transform="matrix(1,0,0,1.0756757259368896,0,-9.610816616625016) " stroke="null" id="svg_9" fill="#333" font-size="14" font-family="Arial" y="359.34294" x="47.94444">- P0 (起始位置)</text>
   <text transform="matrix(1,0,0,1.0756757259368896,0,-9.610816616625016) " stroke="null" id="svg_10" fill="#333" font-size="14" font-family="Arial" y="384.34294" x="47.94444">- Waypoints (路径点)</text>
   <!-- 处理流程箭头 -->
   <path stroke="#555" id="svg_11" marker-end="url(#arrow)" fill="none" stroke-width="2" d="m212.44444,355.12711l40,0"/>
   <!-- 数据提取部分 -->
   <rect stroke="#ff8c00" id="svg_12" stroke-width="2" fill="#fff2e6" rx="5" height="199.00001" width="180" y="260" x="253.44443"/>
   <text transform="matrix(1,0,0,1.0756757259368896,0,-9.610816616625016) " stroke="null" id="svg_13" fill="#ff8c00" text-anchor="middle" font-weight="bold" font-size="16" font-family="Arial" y="271.69221" x="347.69443">数据提取</text>
   <text transform="matrix(1,0,0,1.0756757259368896,0,-9.610816616625016) " stroke="null" id="svg_14" fill="#333" font-size="14" font-family="Arial" y="296.69221" x="272.69443">- 位移数据 (X, Y, Z)</text>
   <text transform="matrix(1,0,0,1.0756757259368896,0,-9.610816616625016) " stroke="null" id="svg_15" fill="#333" font-size="14" font-family="Arial" y="321.69221" x="272.69443">- 速度数据 (u, v, w)</text>
   <text transform="matrix(1,0,0,1.0756757259368896,0,-9.610816616625016) " stroke="null" id="svg_16" fill="#333" font-size="14" font-family="Arial" y="346.69221" x="272.69443">- 角速度数据 (p, q, r)</text>
   <text transform="matrix(1,0,0,1.0756757259368896,0,-9.610816616625016) " stroke="null" id="svg_17" fill="#333" font-size="14" font-family="Arial" y="371.69221" x="272.69443">- 加速度数据</text>
   <text transform="matrix(1,0,0,1.0756757259368896,0,-9.610816616625016) " stroke="null" id="svg_18" fill="#333" font-size="14" font-family="Arial" y="396.69221" x="272.69443">- 角加速度数据</text>
   <text transform="matrix(1,0,0,1.0756757259368896,0,-9.610816616625016) " stroke="null" id="svg_19" fill="#333" font-size="14" font-family="Arial" y="421.69221" x="272.69443">- 姿态角数据 (φ,θ,ψ)</text>
   <!-- 箭头到图表 -->
   <path id="svg_20" marker-end="url(#arrow)" fill="none" stroke-width="2" d="m434.13194,355.1271l40,0" stroke="#555"/>
  </g>
  <g stroke="null" id="svg_21">
   <!-- 图窗1 -->
   <rect stroke="#333" id="svg_22" stroke-width="2" fill="#ffffff" rx="8" height="260.35715" width="460" y="85" x="492"/>
   <text stroke="null" transform="matrix(1,0,0,0.9642857238640694,0,3.714543208009516) " id="svg_23" fill="#333" text-anchor="middle" font-weight="bold" font-size="18" font-family="Arial" y="114.29603" x="722">图窗1: 系统状态数据时间历程</text>
   <!-- 子图表布局示意 -->
   <g stroke="null" id="svg_24">
    <!-- 第一行 -->
    <rect stroke="#1890ff" id="svg_25" fill="#e6f7ff" rx="3" height="57.85714" width="80" y="133.21429" x="512"/>
    <text stroke="null" transform="matrix(1,0,0,0.9642857238640694,0,3.714543208009516) " id="svg_26" fill="#333" text-anchor="middle" font-size="12" font-family="Arial" y="169.29603" x="552">X位移</text>
    <rect stroke="#1890ff" id="svg_27" fill="#e6f7ff" rx="3" height="57.85714" width="80" y="133.21429" x="602"/>
    <text stroke="null" transform="matrix(1,0,0,0.9642857238640694,0,3.714543208009516) " id="svg_28" fill="#333" text-anchor="middle" font-size="12" font-family="Arial" y="169.29603" x="642">u速度</text>
    <rect stroke="#1890ff" id="svg_29" fill="#e6f7ff" rx="3" height="57.85714" width="80" y="133.21429" x="692"/>
    <text stroke="null" transform="matrix(1,0,0,0.9642857238640694,0,3.714543208009516) " id="svg_30" fill="#333" text-anchor="middle" font-size="12" font-family="Arial" y="169.29603" x="732">p角速度</text>
    <rect id="svg_31" fill="#e6ffe6" rx="3" height="191.57144" width="150" y="133.21429" x="782" stroke="#28a745"/>
    <text stroke="null" transform="matrix(1,0,0,0.9642857238640694,0,3.714543208009516) " id="svg_32" fill="#333" text-anchor="middle" font-size="14" font-family="Arial" y="231.55529" x="857">三维路径</text>
    <text stroke="null" transform="matrix(1,0,0,0.9642857238640694,0,3.714543208009516) " id="svg_33" fill="#333" text-anchor="middle" font-size="14" font-family="Arial" y="251.55529" x="857">跟踪轨迹</text>
    <!-- 第二行 -->
    <rect stroke="#1890ff" id="svg_34" fill="#e6f7ff" rx="3" height="57.85714" width="80" y="200.71429" x="512"/>
    <text stroke="null" transform="matrix(1,0,0,0.9642857238640694,0,3.714543208009516) " id="svg_35" fill="#333" text-anchor="middle" font-size="12" font-family="Arial" y="239.29603" x="552">Y位移</text>
    <rect stroke="#1890ff" id="svg_36" fill="#e6f7ff" rx="3" height="57.85714" width="80" y="200.71429" x="602"/>
    <text stroke="null" transform="matrix(1,0,0,0.9642857238640694,0,3.714543208009516) " id="svg_37" fill="#333" text-anchor="middle" font-size="12" font-family="Arial" y="239.29603" x="642">v速度</text>
    <rect stroke="#1890ff" id="svg_38" fill="#e6f7ff" rx="3" height="57.85714" width="80" y="200.71429" x="692"/>
    <text stroke="null" transform="matrix(1,0,0,0.9642857238640694,0,3.714543208009516) " id="svg_39" fill="#333" text-anchor="middle" font-size="12" font-family="Arial" y="239.29603" x="732">q角速度</text>
    <!-- 第三行 -->
    <rect stroke="#1890ff" id="svg_40" fill="#e6f7ff" rx="3" height="57.85714" width="80" y="268.21429" x="512"/>
    <text stroke="null" transform="matrix(1,0,0,0.9642857238640694,0,3.714543208009516) " id="svg_41" fill="#333" text-anchor="middle" font-size="12" font-family="Arial" y="309.29603" x="552">Z位移</text>
    <rect stroke="#1890ff" id="svg_42" fill="#e6f7ff" rx="3" height="57.85714" width="80" y="268.21429" x="602"/>
    <text stroke="null" transform="matrix(1,0,0,0.9642857238640694,0,3.714543208009516) " id="svg_43" fill="#333" text-anchor="middle" font-size="12" font-family="Arial" y="309.29603" x="642">w速度</text>
    <rect stroke="#1890ff" id="svg_44" fill="#e6f7ff" rx="3" height="57.85714" width="80" y="268.21429" x="692"/>
    <text stroke="null" transform="matrix(1,0,0,0.9642857238640694,0,3.714543208009516) " id="svg_45" fill="#333" text-anchor="middle" font-size="12" font-family="Arial" y="309.29603" x="732">r角速度</text>
   </g>
   <!-- 图窗2 -->
   <rect id="svg_46" stroke-width="2" fill="#ffffff" rx="8" height="275.12278" width="460" y="364.64286" x="492" stroke="#333"/>
   <text stroke="null" transform="matrix(1,0,0,0.9642857238640694,0,3.714543208009516) " id="svg_47" fill="#333" text-anchor="middle" font-weight="bold" font-size="18" font-family="Arial" y="404.29603" x="722">图窗2: 加速度与姿态角数据时间历程</text>
   <!-- 子图表布局示意 -->
   <g stroke="null" id="svg_48">
    <!-- 第一行: 加速度 -->
    <rect stroke="#e83e8c" id="svg_49" fill="#ffebf5" rx="3" height="57.85714" width="120" y="412.85715" x="522"/>
    <text stroke="null" transform="matrix(1,0,0,0.9642857238640694,0,3.714543208009516) " id="svg_50" fill="#333" text-anchor="middle" font-size="12" font-family="Arial" y="459.29603" x="582">纵向加速度</text>
    <rect stroke="#e83e8c" id="svg_51" fill="#ffebf5" rx="3" height="57.85714" width="120" y="412.85715" x="662"/>
    <text stroke="null" transform="matrix(1,0,0,0.9642857238640694,0,3.714543208009516) " id="svg_52" fill="#333" text-anchor="middle" font-size="12" font-family="Arial" y="459.29603" x="722">横向加速度</text>
    <rect stroke="#e83e8c" id="svg_53" fill="#ffebf5" rx="3" height="57.85714" width="120" y="412.85715" x="802"/>
    <text stroke="null" transform="matrix(1,0,0,0.9642857238640694,0,3.714543208009516) " id="svg_54" fill="#333" text-anchor="middle" font-size="12" font-family="Arial" y="459.29603" x="862">垂向加速度</text>
    <!-- 第二行: 角加速度 -->
    <rect stroke="#fd7e14" id="svg_55" fill="#fff0e5" rx="3" height="57.85714" width="120" y="490" x="522"/>
    <text stroke="null" transform="matrix(1,0,0,0.9642857238640694,0,3.714543208009516) " id="svg_56" fill="#333" text-anchor="middle" font-size="12" font-family="Arial" y="539.29603" x="582">横倾角加速度</text>
    <rect stroke="#fd7e14" id="svg_57" fill="#fff0e5" rx="3" height="57.85714" width="120" y="490" x="662"/>
    <text stroke="null" transform="matrix(1,0,0,0.9642857238640694,0,3.714543208009516) " id="svg_58" fill="#333" text-anchor="middle" font-size="12" font-family="Arial" y="539.29603" x="722">纵倾角加速度</text>
    <rect stroke="#fd7e14" id="svg_59" fill="#fff0e5" rx="3" height="57.85714" width="120" y="490" x="802"/>
    <text stroke="null" transform="matrix(1,0,0,0.9642857238640694,0,3.714543208009516) " id="svg_60" fill="#333" text-anchor="middle" font-size="12" font-family="Arial" y="539.29603" x="862">首向角加速度</text>
    <!-- 第三行: 姿态角 -->
    <rect stroke="#7952b3" id="svg_61" fill="#e6f4ff" rx="3" height="57.85714" width="120" y="567.14286" x="522"/>
    <text stroke="null" transform="matrix(1,0,0,0.9642857238640694,0,3.714543208009516) " id="svg_62" fill="#333" text-anchor="middle" font-size="12" font-family="Arial" y="619.29603" x="582">横倾角(φ)</text>
    <rect stroke="#7952b3" id="svg_63" fill="#e6f4ff" rx="3" height="57.85714" width="120" y="567.14286" x="662"/>
    <text stroke="null" transform="matrix(1,0,0,0.9642857238640694,0,3.714543208009516) " id="svg_64" fill="#333" text-anchor="middle" font-size="12" font-family="Arial" y="619.29603" x="722">纵倾角(θ)</text>
    <rect stroke="#7952b3" id="svg_65" fill="#e6f4ff" rx="3" height="57.85714" width="120" y="567.14286" x="802"/>
    <text stroke="null" transform="matrix(1,0,0,0.9642857238640694,0,3.714543208009516) " id="svg_66" fill="#333" text-anchor="middle" font-size="12" font-family="Arial" y="619.29603" x="862">首向角(ψ)</text>
   </g>
  </g>
  <g id="svg_67">
   <text id="svg_68" fill="#333" font-weight="bold" font-size="16" font-family="Arial" y="682" x="492">图表类型:</text>
   <rect id="svg_69" stroke="#1890ff" fill="#e6f7ff" height="10" width="20" y="697.59594" x="492.44444"/>
   <text id="svg_70" fill="#333" font-size="14" font-family="Arial" y="707.44446" x="522">位移/速度/角速度时间历程曲线</text>
   <rect id="svg_71" stroke="#28a745" fill="#e6ffe6" height="10" width="20" y="697.59592" x="756.44444"/>
   <text id="svg_72" fill="#333" font-size="14" font-family="Arial" y="707.44443" x="786.44444">三维路径跟踪轨迹</text>
   <rect id="svg_73" stroke="#e83e8c" fill="#ffebf5" height="10" width="20" y="727.59594" x="492.44445"/>
   <text id="svg_74" fill="#333" font-size="14" font-family="Arial" y="737.44446" x="522">加速度时间历程曲线</text>
   <rect id="svg_75" stroke="#fd7e14" fill="#fff0e5" height="10" width="20" y="727.59592" x="756.44444"/>
   <text id="svg_76" fill="#333" font-size="14" font-family="Arial" y="737.44443" x="786.44444">角加速度时间历程曲线</text>
   <rect id="svg_77" stroke="#7952b3" fill="#e6f4ff" height="10" width="20" y="757" x="492.44444"/>
   <text id="svg_78" fill="#333" font-size="14" font-family="Arial" y="767" x="522">姿态角时间历程曲线</text>
  </g>
  <g id="svg_79">
   <text id="svg_80" fill="#333" font-weight="bold" font-size="16" font-family="Arial" y="719.44444" x="27.66667">版本信息:</text>
   <text id="svg_81" fill="#333" font-size="14" font-family="Arial" y="744.44444" x="27.66667">v1.0 (250304) - 初始版本</text>
   <text id="svg_82" fill="#333" font-size="14" font-family="Arial" y="769.44444" x="27.66667">v1.1 (250304) - 布局优化</text>
  </g>
 </g>
</svg>